<svg xmlns="http://www.w3.org/2000/svg" viewBox="0 0 1128.64 1530.99"><defs><style>.cls-1{fill:#edecec;}.cls-2,.cls-46{fill:#b52f18;}.cls-2,.cls-47{stroke:#b52f18;}.cls-2,.cls-42,.cls-43,.cls-44,.cls-45,.cls-47{stroke-miterlimit:10;}.cls-2{stroke-width:0.75px;}.cls-3,.cls-4{font-size:25px;}.cls-3{fill:#fff;}.cls-10,.cls-11,.cls-12,.cls-15,.cls-16,.cls-17,.cls-18,.cls-19,.cls-22,.cls-27,.cls-28,.cls-3,.cls-30,.cls-31,.cls-33,.cls-39,.cls-4,.cls-41,.cls-6,.cls-7,.cls-9{font-family:Arsenal-Bold, Arsenal;font-weight:700;}.cls-10,.cls-11,.cls-12,.cls-15,.cls-16,.cls-17,.cls-18,.cls-19,.cls-22,.cls-27,.cls-28,.cls-30,.cls-31,.cls-33,.cls-39,.cls-4,.cls-41,.cls-6,.cls-7,.cls-9{fill:#b1b1b1;}.cls-5{letter-spacing:-0.04em;}.cls-6{font-size:14px;}.cls-46,.cls-7{font-size:16px;}.cls-8{letter-spacing:-0.04em;}.cls-9{font-size:10px;}.cls-10{font-size:7px;}.cls-11{font-size:4px;}.cls-12{font-size:5px;}.cls-13{letter-spacing:-0.02em;}.cls-14{letter-spacing:-0.06em;}.cls-15{font-size:12px;}.cls-16{font-size:8px;}.cls-17{font-size:13px;}.cls-18{font-size:11px;}.cls-19{font-size:20px;}.cls-20{letter-spacing:-0.03em;}.cls-21{letter-spacing:-0.08em;}.cls-22{font-size:6px;}.cls-23{letter-spacing:0.02em;}.cls-24{letter-spacing:-0.02em;}.cls-25{letter-spacing:-0.06em;}.cls-26{letter-spacing:-0.06em;}.cls-27{font-size:5.5px;}.cls-28{font-size:6.5px;}.cls-29{letter-spacing:-0.02em;}.cls-30{font-size:15px;}.cls-31{font-size:4.7px;}.cls-32{letter-spacing:-0.01em;}.cls-33{font-size:2.5px;}.cls-34{letter-spacing:-0.06em;}.cls-35{letter-spacing:0em;}.cls-36{letter-spacing:-0.06em;}.cls-37{letter-spacing:0em;}.cls-38{letter-spacing:-0.01em;}.cls-39{font-size:3.3px;}.cls-40{letter-spacing:-0.06em;}.cls-41{font-size:3.5px;}.cls-42,.cls-43,.cls-44,.cls-45,.cls-47{fill:none;}.cls-42{stroke:#c5c5c5;}.cls-43{stroke:#6f6f6e;}.cls-44{stroke:#000;}.cls-45{stroke:#fff;}.cls-46{font-family:Arsenal-Regular, Arsenal;}.cls-47{stroke-width:1.5px;}</style></defs><title>888Ресурс 3</title><g id="Слой_2" data-name="Слой 2"><g id="Слой_1-2" data-name="Слой 1"><polygon class="cls-1" points="901.52 49.24 851.82 0 0 0 0 1327.21 283.99 1327.21 283.99 1341.29 397.29 1341.29 397.29 1327.21 901.52 1327.21 901.52 49.24"/><rect class="cls-2" x="530.04" y="771.01" width="348.54" height="101.53"/><text class="cls-3" transform="translate(635.6 830.9)">ЭЛЬДОРАДО</text><text class="cls-4" transform="translate(183.89 830.9)">ЭЛЬДОРАДО</text><text class="cls-4" transform="translate(636.01 721.43)">ОРАНЖЕВОЕ НЕБО</text><text class="cls-4" transform="translate(677.18 1101.87)">S<tspan class="cls-5" x="12.3" y="0">P</tspan><tspan x="24.62" y="0">AR</tspan></text><text class="cls-4" transform="translate(700.04 398.91)">РБТ</text><text class="cls-4" transform="translate(447.5 279.33)">DUDUПАРК</text><text class="cls-4" transform="translate(513.06 136.28)">МЕТЕО С</text><text class="cls-4" transform="translate(282.39 136.28)">РАЗНОТОРГ</text><text class="cls-4" transform="translate(105.34 340.9)">СПОРТМАСТЕР</text><text class="cls-4" transform="translate(85.07 617.04)">ДЕТСКИЙ МИР</text><text class="cls-4" transform="translate(821.63 239.24)">DNS</text><text class="cls-6" transform="translate(813.8 153.36)">SUNLIGHT</text><text class="cls-7" transform="translate(680.85 153.23)">СИБЕРИНА </text><text class="cls-6" transform="translate(681.07 221.69)">WEST<tspan class="cls-8" x="33.67" y="0">F</tspan><tspan x="39.94" y="0" xml:space="preserve">ALIKA  </tspan></text><text class="cls-9" transform="translate(639.34 271.77)"><tspan xml:space="preserve">ТОЙ.РУ  </tspan></text><text class="cls-10" transform="translate(745.71 75.76)"><tspan xml:space="preserve"> ТЕРРИТОРИЯ </tspan><tspan x="9.4" y="8">СУМОК</tspan></text><text class="cls-11" transform="translate(745.23 251.84)">ДАМСКИЕ <tspan x="1.28" y="5">ШТУЧКИ</tspan></text><text class="cls-12" transform="translate(746.11 288)">INGLOT</text><text class="cls-12" transform="translate(356.43 285.79)">POMADORO<tspan x="6.09" y="5">R</tspan><tspan class="cls-13" x="8.98" y="5">O</tspan><tspan class="cls-14" x="12.22" y="5">Y</tspan><tspan x="14.53" y="5">AL </tspan></text><text class="cls-15" transform="translate(28.4 258.15)">РЕСТОРАН </text><text class="cls-16" transform="translate(410.14 273.59) rotate(-90)">33 <tspan x="-15.73" y="7">ПИНГВИНА</tspan></text><text class="cls-16" transform="translate(610.82 292.54) rotate(-90)">РАСЧУДЕСЬЕ</text><text class="cls-16" transform="translate(175.44 926.4) rotate(-90)">АБС-БЬЮТИ</text><text class="cls-17" transform="translate(533.78 714.82)">МАЛИНА</text><text class="cls-11" transform="translate(30.72 945.06)">РЕМОНТ <tspan x="-1.01" y="4">ТЕХНИКИ</tspan></text><text class="cls-17" transform="translate(103.56 910.07)">ЭЛЛИПС</text><text class="cls-7" transform="translate(54.8 1115.84)">ТВОЁ</text><text class="cls-15" transform="translate(246.47 1152.47)">SPORTTIME</text><text class="cls-17" transform="translate(251.78 1116.35)">RESPECT</text><text class="cls-18" transform="translate(383.45 1126.28)">KIRA <tspan x="-16.64" y="11">PLASTININА</tspan></text><text class="cls-6" transform="translate(367.54 1058.26)">Л&apos;ЭТУАЛЬ</text><text class="cls-19" transform="translate(199.11 1080.87)">BEEFREE</text><text class="cls-19" transform="translate(237.82 1021.69)">ТРЭЙС</text><text class="cls-19" transform="translate(156.32 998.36)">B<tspan class="cls-20" x="11.38" y="0">A</tspan><tspan x="22.94" y="0">ON</tspan></text><text class="cls-17" transform="translate(154.06 1036.59)">SI<tspan class="cls-21" x="10.21" y="0">L</tspan><tspan x="15.39" y="0">VERUN</tspan></text><text class="cls-22" transform="translate(330.28 1070.76)">SJUST</text><text class="cls-17" transform="translate(168.89 1120.18)">LA DIANA</text><text class="cls-7" transform="translate(33.74 1149.85)">SUGARELLE </text><text class="cls-4" transform="translate(46.78 1263.13)">KARI</text><text class="cls-4" transform="translate(201.48 1290.75)">O-STIN</text><text class="cls-22" transform="translate(536.71 1272.22)">ПАРФЮМЕРНО-<tspan x="-2.74" y="7">КОСМЕТИЧЕСКИЕ </tspan><tspan x="10.03" y="14">ТОВАРЫ</tspan></text><text class="cls-6" transform="translate(44.02 1185.24)">ТРИБУНА </text><text class="cls-12" transform="translate(367.91 1285.98)">INTIMISSIMI </text><text class="cls-16" transform="translate(65.02 994.73)">ИМПЕРИЯ <tspan x="4.66" y="8">СУМОК</tspan></text><text class="cls-9" transform="translate(66.88 1057.48)">PERT<tspan class="cls-23" x="21.51" y="0">T</tspan><tspan x="26.87" y="0">Y </tspan><tspan x="6.86" y="10">ONE</tspan></text><text class="cls-22" transform="translate(243.56 1195.99)">СТРОМАНТА</text><text class="cls-11" transform="translate(369.06 1207.63)">YVES<tspan x="-2.92" y="4">ROCHER</tspan></text><text class="cls-22" transform="translate(365.63 1180.41)">MIXIТ</text><text class="cls-16" transform="translate(210.66 903.33)">LIZA <tspan x="-16.46" y="9">MUR</tspan><tspan class="cls-24" x="-0.08" y="9">O</tspan><tspan x="5.11" y="9">VSK</tspan><tspan class="cls-25" x="18.6" y="9">A</tspan><tspan x="22.99" y="9">YА</tspan></text><text class="cls-15" transform="translate(261.19 909.31)">BASCONI</text><text class="cls-16" transform="translate(325.35 908.12)">Т<tspan class="cls-25" x="4.13" y="0">A</tspan><tspan x="8.51" y="0">TUM</tspan></text><text class="cls-22" transform="translate(367.99 907.27)">MIL<tspan class="cls-26" x="9.77" y="0">A</tspan><tspan x="13.06" y="0">VITSA</tspan></text><text class="cls-9" transform="translate(394.63 993.36)">ДЮССО</text><text class="cls-12" transform="translate(444.18 982.75)">СУШИ-MAKEТ </text><text class="cls-27" transform="translate(452.28 1003.03)">ТЕЛЕ2</text><text class="cls-12" transform="translate(444.27 1023.95)">APPEL-TOMSK</text><text class="cls-12" transform="translate(441.72 1107.59)">АПТЕКА ВИТА </text><text class="cls-28" transform="translate(440.03 1133.17)">ЭЛЬ ЛИКОН</text><text class="cls-22" transform="translate(433.4 1213.32)"><tspan class="cls-29">K</tspan><tspan x="3.59" y="0">OREA-MARKET</tspan></text><text class="cls-22" transform="translate(439.04 1156.08)">АРОМА-КЛУБ</text><text class="cls-9" transform="translate(435.69 1185.06)">БИЛАЙН</text><text class="cls-11" transform="translate(454.71 1043.45)">БАНК <tspan x="-4.45" y="4">АВАНГАРД</tspan></text><text class="cls-30" transform="translate(445.01 1078.51)">МТС</text><text class="cls-16" transform="translate(412.87 907.7)">МАРУСЯ</text><text class="cls-11" transform="translate(80 946.64)">ПОДАРКОВИЧ</text><text class="cls-31" transform="translate(462.07 952.36)"><tspan class="cls-32">O</tspan><tspan x="3.05" y="0">ASIAS</tspan></text><text class="cls-11" transform="translate(129.16 984.44) rotate(-90)">МТС</text><text class="cls-33" transform="translate(143.27 1217.62) rotate(-90)">СУВЕНИР</text><text class="cls-22" transform="translate(510.16 1297.78) rotate(-90)">ЕВРОСЕТЬ</text><text class="cls-10" transform="translate(481.86 1300.31) rotate(-90)">МЕГАФОН</text><text class="cls-10" transform="translate(451.3 1299.47) rotate(-90)">SABELINО</text><text class="cls-19" transform="translate(183.76 1208.56) rotate(-90)">LUH<tspan class="cls-34" x="34.96" y="0">T</tspan><tspan class="cls-35" x="44.08" y="0">A</tspan></text><text class="cls-15" transform="translate(219.56 1214.68) rotate(-90)">MARMAL<tspan class="cls-36" x="47.82" y="0">A</tspan><tspan class="cls-37" x="54.4" y="0">TO</tspan></text><text class="cls-18" transform="translate(303.68 1214.44) rotate(-90)">ЭТАЛОН</text><text class="cls-10" transform="translate(408.77 1213.93) rotate(-90)">CALZEDONIA</text><text class="cls-22" transform="translate(420.69 1291.05) rotate(-90)">LA<tspan class="cls-38" x="6.52" y="0">D</tspan><tspan x="10.31" y="0">Y </tspan><tspan x="-9.53" y="5">COLLECTION</tspan></text><text class="cls-39" transform="translate(337.35 1216.08) rotate(-90)">DISCOUNT <tspan x="2.17" y="3">DEVICE</tspan></text><text class="cls-22" transform="translate(339.85 1179.37) rotate(-90)">ЧАСЫ</text><text class="cls-22" transform="translate(339.85 1138.95) rotate(-90)"><tspan class="cls-38">Y</tspan><tspan x="3.05" y="0">O</tspan><tspan class="cls-40" x="7.03" y="0">T</tspan><tspan x="9.76" y="0">A</tspan></text><text class="cls-10" transform="translate(372.08 1002.67) rotate(-90)">ЛИНИИ <tspan x="-0.13" y="6">ЛЮБВИ</tspan></text><text class="cls-31" transform="translate(361.61 952.36)">СОФИЯ</text><text class="cls-41" transform="translate(262.46 950.17)">HOT <tspan x="-4.43" y="3.5">DIAMOND</tspan></text><text class="cls-41" transform="translate(161.63 1238.73)">ШАПКИ<tspan x="1.52" y="3.5">ОЧКИ</tspan></text><text class="cls-41" transform="translate(429.75 950.17)">КОФЕ НА <tspan x="1.45" y="3.5">ВЫНОС</tspan></text><text class="cls-11" transform="translate(559.67 322.32)">МАШИНКИ</text><rect class="cls-42" x="22.92" y="23.04" width="209.12" height="208.37"/><rect class="cls-43" x="243.02" y="23.04" width="206.56" height="208.37"/><rect class="cls-43" x="460.58" y="23.04" width="202.63" height="208.37"/><rect class="cls-43" x="673.43" y="201.59" width="91.72" height="29.82"/><rect class="cls-43" x="784.67" y="131.83" width="7.63" height="21.95"/><rect class="cls-43" x="784.67" y="232.23" width="7.63" height="8.76"/><polygon class="cls-43" points="786.29 66.86 743.27 66.86 743.27 88.8 782.52 88.8 795.44 76.01 786.29 66.86"/><polygon class="cls-43" points="878.58 70.05 861.95 70.05 809.28 121.94 809.28 178.11 878.58 178.11 878.58 70.05"/><rect class="cls-43" x="809.39" y="189.13" width="69.17" height="81.78"/><rect class="cls-43" x="743.2" y="242.37" width="21.94" height="22.04"/><rect class="cls-43" x="743.2" y="275.41" width="21.94" height="22.04"/><rect class="cls-43" x="437.43" y="242.37" width="143.17" height="55.08"/><polygon class="cls-43" points="635.66 260.74 635.66 297.45 675.83 297.45 675.83 242.37 635.66 242.37 635.66 260.74"/><rect class="cls-43" x="591.6" y="242.37" width="33.06" height="55.08"/><polygon class="cls-43" points="395.18 274.49 395.18 297.45 411.59 297.45 426.43 297.45 426.43 242.35 395.18 242.35 395.18 274.49"/><rect class="cls-43" x="354.8" y="275.45" width="29.38" height="22.01"/><rect class="cls-43" x="557.74" y="314.8" width="23.59" height="12.27"/><rect class="cls-43" x="22.92" y="242.43" width="66.09" height="24.94"/><polygon class="cls-43" points="100.08 278.37 22.92 278.37 22.92 333.74 22.92 421.85 78.69 421.51 311.05 421.51 311.05 297.45 343.8 297.45 343.8 242.43 100.08 242.43 100.08 278.37"/><polygon class="cls-44" points="803.18 68.09 834.12 37.27 834.12 23.04 743.27 23.04 743.27 55.85 790.94 55.85 803.18 68.09"/><rect class="cls-44" x="686.83" y="242.37" width="45.38" height="55.08"/><rect class="cls-44" x="386.89" y="314.8" width="23.59" height="12.27"/><rect class="cls-44" x="445.86" y="314.8" width="23.59" height="12.27"/><rect class="cls-44" x="525.31" y="314.8" width="23.59" height="12.27"/><rect class="cls-44" x="662.9" y="314.8" width="14.15" height="12.27"/><rect class="cls-44" x="730.59" y="314.8" width="14.15" height="12.27"/><polygon class="cls-43" points="809.39 300.19 809.39 344.74 629.04 344.74 561.42 344.74 530.04 344.74 530.04 445.96 561.42 445.96 629.04 445.96 878.58 445.96 878.58 300.19 809.39 300.19"/><rect class="cls-42" x="359.8" y="344.74" width="122.49" height="382.07"/><rect class="cls-43" x="530.04" y="665.59" width="59.8" height="94.43"/><rect class="cls-43" x="600.84" y="665.59" width="277.74" height="94.43"/><rect class="cls-43" x="22.92" y="771.01" width="459.37" height="99.58"/><rect class="cls-45" x="122.3" y="666.3" width="188.76" height="93.71"/><polygon class="cls-43" points="22.92 638.61 22.92 760.01 111.3 760.01 111.3 655.3 311.05 655.3 311.05 558.32 22.94 558.32 22.94 638.61 22.92 638.61"/><polygon class="cls-45" points="878.6 547.28 878.58 523.88 878.58 456.96 798.39 456.96 766.54 456.96 530.04 456.96 530.04 547.32 761.66 547.32 761.66 547.35 878.6 547.28"/><rect class="cls-45" x="530.04" y="558.34" width="348.54" height="96.26"/><rect class="cls-45" x="22.92" y="456.96" width="288.13" height="90.37"/><rect class="cls-43" x="331.66" y="1200.2" width="12.22" height="17.21"/><rect class="cls-43" x="330.9" y="1161.97" width="13.74" height="19.35"/><rect class="cls-43" x="330.9" y="1122.57" width="13.74" height="19.35"/><rect class="cls-43" x="328.09" y="1061.7" width="19.35" height="13.74"/><rect class="cls-43" x="161.62" y="1142.62" width="28.89" height="75.49"/><rect class="cls-43" x="201.51" y="1142.62" width="28.54" height="75.49"/><rect class="cls-43" x="357.5" y="945.77" width="23.55" height="10.11"/><rect class="cls-43" x="256.64" y="945.77" width="18.06" height="10.11"/><rect class="cls-43" x="427.86" y="945.77" width="18.13" height="10.11"/><rect class="cls-43" x="460.38" y="945.77" width="18.13" height="10.11"/><rect class="cls-43" x="158.7" y="1234.51" width="17.83" height="9.74"/><rect class="cls-44" x="217.78" y="1234.51" width="17.83" height="9.74"/><rect class="cls-43" x="123.87" y="975.25" width="8.13" height="10.48"/><rect class="cls-43" x="125.67" y="1003.54" width="4.57" height="6.73"/><rect class="cls-43" x="125.67" y="1015.27" width="4.57" height="6.73"/><rect class="cls-43" x="125.56" y="1043.11" width="4.57" height="6.73"/><rect class="cls-43" x="125.56" y="1054.84" width="4.57" height="6.73"/><rect class="cls-43" x="140.18" y="1079.28" width="4.57" height="6.73"/><rect class="cls-43" x="140.18" y="1091.28" width="4.57" height="6.73"/><rect class="cls-43" x="140.18" y="1145.51" width="4.57" height="6.73"/><rect class="cls-43" x="140.18" y="1157.24" width="4.57" height="6.73"/><rect class="cls-43" x="139.02" y="1206.22" width="6.88" height="12.47"/><rect class="cls-42" x="22.92" y="881.6" width="35.65" height="47.51"/><rect class="cls-42" x="78.86" y="881.6" width="10.15" height="32.76"/><rect class="cls-43" x="78.86" y="925.36" width="10.13" height="3.75"/><rect class="cls-43" x="100.01" y="881.6" width="55.34" height="47.51"/><rect class="cls-43" x="166.35" y="881.6" width="13" height="47.51"/><rect class="cls-43" x="190.35" y="881.6" width="56.2" height="47.51"/><rect class="cls-43" x="257.55" y="881.6" width="53.5" height="47.51"/><rect class="cls-43" x="322.05" y="881.6" width="31.27" height="47.51"/><rect class="cls-43" x="364.32" y="881.6" width="35.45" height="47.51"/><rect class="cls-43" x="410.77" y="881.6" width="33.83" height="47.51"/><rect class="cls-44" x="455.59" y="881.6" width="26.7" height="47.51"/><rect class="cls-43" x="150.88" y="976.55" width="60.02" height="29.81"/><rect class="cls-43" x="150.88" y="1017.39" width="60.02" height="32.64"/><rect class="cls-43" x="228.13" y="949.06" width="6.32" height="3.54"/><rect class="cls-43" x="216.81" y="949.06" width="6.32" height="3.54"/><rect class="cls-43" x="189.46" y="949.06" width="6.32" height="3.54"/><rect class="cls-43" x="178.14" y="949.06" width="6.32" height="3.54"/><rect class="cls-43" x="150.79" y="949.06" width="6.32" height="3.54"/><rect class="cls-44" x="139.48" y="949.06" width="6.32" height="3.54"/><rect class="cls-43" x="334" y="1300.83" width="9.02" height="3.91"/><rect class="cls-44" x="334.27" y="1309.74" width="3.91" height="6.77"/><rect class="cls-43" x="342.97" y="1309.74" width="3.91" height="6.77"/><rect class="cls-42" x="22.92" y="976.55" width="27.08" height="111.49"/><polygon class="cls-43" points="530.04 1239.44 596.6 1239.44 596.6 1304.24 878.58 1304.24 878.58 883.55 530.04 883.55 530.04 1239.44"/><rect class="cls-43" x="530.04" y="1250.44" width="55.56" height="53.8"/><polygon class="cls-43" points="123.13 1205.32 22.92 1205.32 22.92 1304.24 101.78 1304.24 101.78 1283.74 123.13 1283.74 123.13 1205.32"/><rect class="cls-43" x="112.78" y="1294.75" width="10.35" height="9.49"/><rect class="cls-43" x="22.92" y="1167.05" width="100.22" height="27.27"/><rect class="cls-43" x="22.92" y="1131.87" width="100.22" height="24.18"/><rect class="cls-43" x="22.92" y="1099.05" width="100.22" height="21.82"/><polygon class="cls-43" points="104.86 1030.52 61 1030.52 61 1088.05 120.82 1088.03 104.86 1061.42 104.86 1030.52"/><rect class="cls-43" x="61" y="976.55" width="43.86" height="42.96"/><rect class="cls-43" x="22.92" y="940.11" width="30.58" height="11.08"/><rect class="cls-43" x="78.83" y="940.07" width="27.16" height="11.11"/><polygon class="cls-43" points="161.62 1260.65 161.62 1304.24 315.03 1304.24 315.03 1297.52 310.27 1260.65 161.62 1260.65"/><polygon class="cls-43" points="366.02 1296.91 366.02 1304.24 398.86 1304.24 398.86 1264.8 361.89 1264.8 366.02 1296.91"/><rect class="cls-43" x="221.88" y="976.55" width="89.17" height="73.47"/><polygon class="cls-43" points="311.05 1088.05 311.05 1061.03 152.62 1061.03 160.84 1088.05 311.05 1088.05"/><rect class="cls-43" x="290.26" y="1170.71" width="20.79" height="47.4"/><rect class="cls-43" x="161.62" y="1099.05" width="68.49" height="32.58"/><rect class="cls-43" x="241.05" y="1099.05" width="70" height="27.25"/><rect class="cls-43" x="364.32" y="976.55" width="17.07" height="29.07"/><rect class="cls-43" x="392.39" y="976.55" width="38.39" height="29.07"/><rect class="cls-43" x="364.32" y="1016.62" width="66.46" height="71.1"/><rect class="cls-43" x="441.78" y="976.55" width="35.63" height="9.03"/><rect class="cls-43" x="441.78" y="996.59" width="35.63" height="9.03"/><rect class="cls-43" x="441.78" y="1016.62" width="35.63" height="11.32"/><rect class="cls-43" x="441.78" y="1039.01" width="35.63" height="11.32"/><rect class="cls-43" x="441.78" y="1061.39" width="35.63" height="26.38"/><rect class="cls-43" x="436.75" y="1098.72" width="40.67" height="14.19"/><rect class="cls-43" x="436.75" y="1123.9" width="40.67" height="13.83"/><rect class="cls-43" x="436.75" y="1148.73" width="40.67" height="10.76"/><rect class="cls-43" x="431.75" y="1170.49" width="45.67" height="23.13"/><rect class="cls-43" x="431.75" y="1204.61" width="45.67" height="13.45"/><rect class="cls-43" x="364.32" y="1098.72" width="61.43" height="60.77"/><rect class="cls-43" x="393.26" y="1170.49" width="27.46" height="47.58"/><rect class="cls-43" x="364.32" y="1170.49" width="17.94" height="18.19"/><rect class="cls-43" x="364.32" y="1199.7" width="17.94" height="18.41"/><polygon class="cls-43" points="765.15 99.8 732.2 99.8 732.2 23.04 673.43 23.04 673.43 190.6 765.15 190.6 765.15 99.8"/><path class="cls-43" d="M792.29,153.78h-7.62V131.83h7.62Z"/><path class="cls-43" d="M878.57,270.91H809.39V189.13h69.18Zm-69.29-149L862,70.05h16.63V178.11h-69.3Z"/><polygon class="cls-43" points="241.06 1159.71 241.06 1137.3 311.05 1137.3 311.05 1159.71 279.26 1159.71 241.06 1159.71"/><rect class="cls-43" x="241.06" y="1170.71" width="38.2" height="47.4"/><rect class="cls-43" x="241.05" y="1099.05" width="70" height="27.25"/><text class="cls-46" transform="translate(334.66 1524.21) rotate(-90)">Центральный вход<tspan x="24.8" y="19.2">со стороны ххх </tspan></text><polyline class="cls-47" points="322.97 1379.54 340.53 1362.23 357.8 1379.54"/><text class="cls-46" transform="translate(997.19 1111.27)">Учебная,48д </text><polyline class="cls-47" points="977.19 1123.55 959.88 1105.99 977.19 1088.72"/><text class="cls-46" transform="translate(997.19 227.79)">Котовского 19/1</text><polyline class="cls-47" points="977.19 239.25 959.88 221.69 977.19 204.42"/><text class="cls-46" transform="translate(136.75 1509.97) rotate(-90)">Вход со стороны <tspan x="89.17" y="19.2">ххх </tspan></text><polyline class="cls-47" points="125.06 1379.54 142.63 1362.23 159.9 1379.54"/><text class="cls-46" transform="translate(997.19 557.93)"><tspan xml:space="preserve">Котовского 19/7  </tspan></text><polyline class="cls-47" points="977.19 570.21 959.88 552.65 977.19 535.37"/><line class="cls-47" x1="920.54" y1="552.81" y2="552.81"/><rect class="cls-43" x="409.89" y="1264.8" width="22.47" height="39.44"/><rect class="cls-43" x="438.78" y="1264.8" width="22.47" height="39.44"/><rect class="cls-43" x="467.66" y="1264.8" width="22.47" height="39.44"/><rect class="cls-43" x="496.54" y="1264.8" width="22.47" height="39.44"/></g></g></svg>