<?xml version="1.0" encoding="utf-8"?>
<!-- Generator: Adobe Illustrator 22.0.1, SVG Export Plug-In . SVG Version: 6.00 Build 0)  -->
<svg version="1.1" id="Слой_1" xmlns:x="&ns_extend;" xmlns:i="&ns_ai;" xmlns:graph="&ns_graphs;"
	 xmlns="http://www.w3.org/2000/svg" xmlns:xlink="http://www.w3.org/1999/xlink" x="0px" y="0px" viewBox="0 0 1920 2118"
	 style="enable-background:new 0 0 1920 2118;" xml:space="preserve">
<style type="text/css">
	.st0{fill:#EDECEC;}
	.st1{fill:none;stroke:#6F6F6E;stroke-miterlimit:10;}
	.st2{fill:none;stroke:#C5C5C5;stroke-miterlimit:10;}
	.st3{fill:none;}
	.st4{fill:#B1B1B1;}
	.st5{font-family:'Arsenal-Bold';}
	.st6{font-size:25px;}
	.st7{font-size:7px;}
	.st8{font-size:6px;}
	.st9{font-size:8px;}
	.st10{font-size:11px;}
	.st11{font-size:9px;}
	.st12{font-size:14px;}
	.st13{font-size:12px;}
	.st14{font-size:20px;}
</style>
<metadata>
	<sfw  xmlns="&ns_sfw;">
		<slices></slices>
		<sliceSourceBounds  bottomLeftOrigin="true" height="1327.2" width="901.5" x="510.8" y="-1662.5"></sliceSourceBounds>
	</sfw>
</metadata>
<polygon class="st0" points="1362.6,335.3 1412.3,384.5 1412.3,1662.5 510.8,1662.5 510.8,335.3 "/>
<rect id="монгольская_шерсть" x="639.3" y="1433.8" class="st1" width="75.8" height="28.2"/>
<rect id="ZOLLA" x="534.1" y="1220.4" class="st1" width="181" height="96.2"/>
<g id="кабинеты">
	<rect x="534.1" y="357.6" class="st2" width="205.6" height="206.5"/>
	<rect x="1040.5" y="895.9" class="st2" width="348.5" height="313.5"/>
	<rect x="534.1" y="1433.8" class="st2" width="94" height="28.2"/>
	<polygon class="st2" points="563.5,1473.1 534.1,1473.1 534.1,1527.7 600.4,1527.7 600.4,1509.4 563.5,1509.4 	"/>
	<polygon class="st2" points="832.6,1390.8 880,1390.8 880,1266.4 747.8,1266.4 747.8,1293.2 832.6,1293.2 	"/>
	<polygon class="st2" points="1034.8,1433.8 747.8,1433.8 747.8,1639.5 1284.3,1639.5 1284.3,1266.4 1034.8,1266.4 	"/>
	<rect x="891" y="939.6" class="st2" width="101.8" height="269.8"/>
	<rect x="534.1" y="1104" class="st2" width="345.8" height="105.3"/>
	<rect x="1343.1" y="745.9" class="st2" width="49.2" height="39.1"/>
	<polygon class="st2" points="1385.4,387.8 1355.9,358.2 1343.5,370.4 1373,400.1 	"/>
	<rect x="531.3" y="606.4" class="st2" width="34.6" height="177.3"/>
	<rect x="531.3" y="892.9" class="st2" width="211.4" height="39.7"/>
</g>
<g id="Разноторг">
	<rect x="750.8" y="357.6" class="st1" width="206.3" height="206.5"/>
	<rect x="747.9" y="450.3" class="st3" width="212.6" height="19.5"/>
	<text transform="matrix(1 0 0 1 790.2119 469.1481)" class="st3 st4 st6">Разноторг</text>
</g>
<g id="метео_с">
	<rect x="968.2" y="357.6" class="st1" width="203.8" height="206.5"/>
	<rect x="965.4" y="450.3" class="st3" width="210.1" height="19.5"/>
	<text transform="matrix(1 0 0 1 1021.5431 469.1481)" class="st3 st4 st6">метео с</text>
</g>
<rect x="531.5" y="1258.7" class="st3" width="186.8" height="19.5"/>
<text transform="matrix(1 0 0 1 589.9257 1277.5653)" class="st3 st4 st6">ZOLLA</text>
<g id="Стильпарк">
	<rect x="772" y="1220.4" class="st1" width="45" height="18.8"/>
	<g>
		<rect x="772" y="1227.1" class="st3" width="45" height="5.3"/>
		<text transform="matrix(1 0 0 1 775.7275 1232.395)" class="st3 st4 st7">Стильпарк</text>
	</g>
</g>
<g id="горячие_туры">
	<rect x="726.2" y="1220.4" class="st1" width="34.7" height="18.8"/>
	<g>
		<rect x="726.2" y="1224.4" class="st3" width="34.7" height="10.7"/>
		<text transform="matrix(1 0 0 1 731.5233 1228.9564)"><tspan x="0" y="0" class="st3 st4 st8">горячие </tspan><tspan x="4.6" y="6" class="st3 st4 st8">туры</tspan></text>
	</g>
</g>
<g id="Capello">
	<rect x="939.5" y="1220.4" class="st1" width="53.4" height="18.8"/>
	<g>
		<rect x="939.5" y="1226.5" class="st3" width="53.4" height="6.6"/>
		<text transform="matrix(1 0 0 1 950.7188 1232.5342)" class="st3 st4 st9">Capello</text>
	</g>
</g>
<g id="fort">
	<rect x="828" y="1220.4" class="st1" width="100.5" height="18.8"/>
	<g>
		<rect x="828" y="1225.5" class="st3" width="99.9" height="8.6"/>
		<text transform="matrix(1 0 0 1 865.5811 1233.781)" class="st3 st4 st10">fort</text>
	</g>
</g>
<g id="Сибирский_цирюльник">
	<rect x="747.8" y="1304.2" class="st1" width="73.7" height="31.5"/>
	<g>
		<rect x="747.7" y="1312.5" class="st3" width="73.8" height="14.9"/>
		<text transform="matrix(1 0 0 1 765.1057 1317.7799)"><tspan x="0" y="0" class="st3 st4 st7">Сибирский </tspan><tspan x="-1.3" y="8" class="st3 st4 st7">цирюльник</tspan></text>
	</g>
</g>
<g id="мелочи_быта">
	<rect x="1040.5" y="1220.4" class="st1" width="64.3" height="35"/>
	<g>
		<rect x="1040.5" y="1229.6" class="st3" width="64.3" height="16.6"/>
		<text transform="matrix(1 0 0 1 1055.0095 1236.3674)"><tspan x="0" y="0" class="st3 st4 st11">мелочи</tspan><tspan x="6.5" y="9" class="st3 st4 st11">быта</tspan></text>
	</g>
</g>
<g id="женский__сезон">
	<rect x="534.1" y="1327.5" class="st1" width="63.6" height="42.3"/>
	<g>
		<rect x="531.3" y="1340.1" class="st3" width="69.7" height="20.8"/>
		<text transform="matrix(1 0 0 1 540.7607 1348.4266)"><tspan x="0" y="0" class="st3 st4 st10">женский </tspan><tspan x="9.3" y="11" class="st3 st4 st10">сезон</tspan></text>
	</g>
</g>
<g id="Сибирские_блины">
	<rect x="534.1" y="1392.7" class="st1" width="63.6" height="30.1"/>
	<g>
		<rect x="533.8" y="1400.7" class="st3" width="63.9" height="14.1"/>
		<text transform="matrix(1 0 0 1 544.1198 1406.7026)"><tspan x="0" y="0" class="st3 st4 st9">Сибирские </tspan><tspan x="8.4" y="8" class="st3 st4 st9">блины</tspan></text>
	</g>
</g>
<g id="скорпион">
	<rect x="608.8" y="1392.7" class="st1" width="57.4" height="30.1"/>
	<g>
		<rect x="608.5" y="1404.7" class="st3" width="57.2" height="6.1"/>
		<text transform="matrix(1 0 0 1 616.9555 1410.7317)" class="st3 st4 st9">скорпион</text>
	</g>
</g>
<g>
	<rect x="639.3" y="1440.7" class="st3" width="75.8" height="14.4"/>
	<text transform="matrix(1 0 0 1 649.7937 1446.759)"><tspan x="0" y="0" class="st3 st4 st9">монгольская </tspan><tspan x="13.1" y="8" class="st3 st4 st9">шерсть</tspan></text>
</g>
<g id="ГОЛДы">
	<rect x="574.6" y="1473.1" class="st1" width="25.8" height="25.4"/>
	<g>
		<rect x="574.4" y="1482.7" class="st3" width="25.9" height="6.1"/>
		<text transform="matrix(1 0 0 1 576.2452 1488.028)" class="st3 st4 st7">ГОЛДы</text>
	</g>
</g>
<g id="Постелька">
	<rect x="611.5" y="1473.1" class="st1" width="103.6" height="54.6"/>
	<g>
		<rect x="611.4" y="1493.1" class="st3" width="103.8" height="10.7"/>
		<text transform="matrix(1 0 0 1 625.9145 1503.6921)" class="st3 st4 st12">Постелька</text>
	</g>
</g>
<g id="Читай-город">
	<rect x="534.1" y="1553.8" class="st1" width="202.6" height="85.7"/>
	<g>
		<rect x="534.1" y="1585.2" class="st3" width="202.6" height="22.8"/>
		<text transform="matrix(1 0 0 1 556.2299 1604.0786)" class="st3 st4 st6">Читай-город</text>
	</g>
</g>
<g id="spar">
	<polygon class="st1" points="1389,1639.5 1389,1556.7 1389,1556.7 1389,1256.9 1389,1253.9 1389,1220.4 1115.9,1220.4 
		1115.9,1255.4 1295.4,1255.4 1295.4,1639.5 	"/>
	<g>
		<rect x="1295.4" y="1418.2" class="st3" width="93.6" height="22.8"/>
		<text transform="matrix(1 0 0 1 1314.5657 1437.0465)" class="st3 st4 st6">spar</text>
	</g>
</g>
<g id="TomShoos">
	<rect x="677.3" y="1392.7" class="st1" width="37.8" height="30.1"/>
	<g>
		<rect x="677.4" y="1404.7" class="st3" width="37.8" height="5.3"/>
		<text transform="matrix(1 0 0 1 681.2504 1409.1818)" class="st3 st4 st8">TomShoos</text>
	</g>
</g>
<g id="blackstar">
	<rect x="641.5" y="1327.4" class="st1" width="41.4" height="42.4"/>
	<g>
		<rect x="641.5" y="1345.6" class="st3" width="41.4" height="6.1"/>
		<text transform="matrix(1 0 0 1 644.4965 1350.8589)" class="st3 st4 st7">blackstar</text>
	</g>
</g>
<g id="Баба_Рома">
	<rect x="747.8" y="1347.4" class="st1" width="73.7" height="32.5"/>
	<g>
		<rect x="747.8" y="1358.3" class="st3" width="73.7" height="9.8"/>
		<text transform="matrix(1 0 0 1 753.2449 1367.3502)" class="st3 st4 st13">Баба Рома</text>
	</g>
</g>
<g id="монро">
	<rect x="915.6" y="1266.4" class="st1" width="108.1" height="50.2"/>
	<g>
		<rect x="915.7" y="1284.9" class="st3" width="108.1" height="16.3"/>
		<text transform="matrix(1 0 0 1 936.0135 1299.9543)" class="st3 st4 st14">монро</text>
	</g>
</g>
<g id="МАЛИНА">
	<rect x="915.6" y="1327.5" class="st1" width="108.1" height="95.3"/>
	<g>
		<rect x="915.3" y="1360.5" class="st3" width="108.4" height="16.3"/>
		<text transform="matrix(1 0 0 1 929.2372 1375.5438)" class="st3 st4 st14">МАЛИНА</text>
	</g>
</g>
<g id="ШАПО">
	<rect x="747.8" y="1391.2" class="st1" width="73.7" height="31.6"/>
	<g>
		<rect x="747.8" y="1402.8" class="st3" width="73.7" height="9.8"/>
		<text transform="matrix(1 0 0 1 767.9802 1411.881)" class="st3 st4 st13">ШАПО</text>
	</g>
</g>
<g id="Maxfild">
	<rect x="608.8" y="1327.4" class="st1" width="21.6" height="42.4"/>
	<rect x="616.9" y="1327.1" class="st3" width="6.6" height="42.3"/>
	<text transform="matrix(0 -1 1 0 622.2196 1362.0298)" class="st3 st4 st7">Maxfild</text>
</g>
<g id="SUBWAY">
	<rect x="693.9" y="1327.4" class="st1" width="21.2" height="42.4"/>
	<rect x="701.4" y="1327.4" class="st3" width="6.6" height="42.3"/>
	<text transform="matrix(0 -1 1 0 707.438 1363.3291)" class="st3 st4 st9">SUBWAY</text>
</g>
</svg>
