<svg xmlns="http://www.w3.org/2000/svg" viewBox="0 0 901.52 1327.21"><defs><style>.cls-1{fill:#edecec;}.cls-2,.cls-3{fill:none;stroke-miterlimit:10;}.cls-2{stroke:#6f6f6e;}.cls-3{stroke:#c5c5c5;}.cls-4{font-size:25px;}.cls-10,.cls-14,.cls-15,.cls-4,.cls-5,.cls-6,.cls-7,.cls-8,.cls-9{fill:#b1b1b1;font-family:Arsenal-Bold, Arsenal;font-weight:700;}.cls-5{font-size:7px;}.cls-6{font-size:6px;}.cls-7{font-size:8px;}.cls-8{font-size:11px;}.cls-9{font-size:9px;}.cls-10{font-size:14px;}.cls-11{letter-spacing:-0.04em;}.cls-12{letter-spacing:-0.03em;}.cls-13{letter-spacing:-0.06em;}.cls-14{font-size:12px;}.cls-15{font-size:20px;}.cls-16{letter-spacing:-0.06em;}</style></defs><title>Ресурс 1</title><g id="Слой_2" data-name="Слой 2"><g id="Слой_1-2" data-name="Слой 1"><polygon class="cls-1" points="851.82 0 901.52 49.24 901.52 1327.21 0 1327.21 0 0 851.82 0"/><rect id="монгольская_шерсть" data-name="монгольская шерсть" class="cls-2" x="128.42" y="1098.49" width="75.84" height="28.25"/><rect id="ZOLLA" class="cls-2" x="23.3" y="885.07" width="180.95" height="96.17"/><g id="кабинеты"><rect class="cls-3" x="23.3" y="22.32" width="205.64" height="206.5"/><rect class="cls-3" x="529.71" y="560.57" width="348.51" height="313.5"/><rect class="cls-3" x="23.3" y="1098.49" width="94.04" height="28.25"/><polygon class="cls-3" points="52.69 1137.81 23.3 1137.81 23.3 1192.39 89.6 1192.39 89.6 1174.14 52.69 1174.14 52.69 1137.81"/><polygon class="cls-3" points="321.74 1055.53 369.14 1055.53 369.14 931.07 237.02 931.07 237.02 957.91 321.74 957.91 321.74 1055.53"/><polygon class="cls-3" points="524 1098.49 237.02 1098.49 237.02 1304.2 773.48 1304.2 773.48 931.07 524 931.07 524 1098.49"/><rect class="cls-3" x="380.21" y="604.32" width="101.81" height="269.75"/><rect class="cls-3" x="23.3" y="768.74" width="345.84" height="105.33"/><rect class="cls-3" x="832.22" y="410.57" width="49.18" height="39.13"/><polygon class="cls-3" points="874.53 52.55 845.03 22.86 832.66 35.1 862.16 64.79 874.53 52.55"/><rect class="cls-3" x="20.51" y="271.16" width="34.6" height="177.25"/><rect class="cls-3" x="20.51" y="557.57" width="211.43" height="39.67"/></g><g id="Разноторг"><rect class="cls-2" x="240.02" y="22.32" width="206.3" height="206.5"/><text class="cls-4" transform="translate(279.38 133.86)">РАЗНОТОРГ</text></g><g id="метео_с" data-name="метео с"><rect class="cls-2" x="457.39" y="22.32" width="203.76" height="206.5"/><text class="cls-4" transform="translate(510.71 133.86)">МЕТЕО С</text></g><text class="cls-4" transform="translate(79.09 942.27)">ZOLLA</text><g id="Стильпарк"><rect class="cls-2" x="261.13" y="885.07" width="45.02" height="18.83"/><text class="cls-5" transform="translate(264.9 897.1)">СТИЛЬПАРК</text></g><g id="горячие_туры" data-name="горячие туры"><rect class="cls-2" x="215.33" y="885.07" width="34.72" height="18.83"/><text class="cls-6" transform="translate(220.69 893.67)">ГОРЯЧИЕ <tspan x="4.64" y="6">ТУРЫ</tspan></text></g><g id="Capello"><rect class="cls-2" x="428.65" y="885.07" width="53.37" height="18.83"/><text class="cls-7" transform="translate(439.89 897.24)">CAPELLO</text></g><g id="fort"><rect class="cls-2" x="317.15" y="885.07" width="100.5" height="18.83"/><text class="cls-8" transform="translate(354.75 898.49)">FORT</text></g><g id="Сибирский_цирюльник" data-name="Сибирский цирюльник"><rect class="cls-2" x="237.02" y="968.91" width="73.65" height="31.49"/><text class="cls-5" transform="translate(254.27 982.49)">СИБИРСКИЙ <tspan x="-1.29" y="8">ЦИРЮЛЬНИК</tspan></text></g><g id="мелочи_быта" data-name="мелочи быта"><rect class="cls-2" x="529.71" y="885.07" width="64.34" height="34.97"/><text class="cls-9" transform="translate(544.18 901.08)">МЕЛОЧИ<tspan x="6.53" y="9">БЫТА</tspan></text></g><g id="женский_сезон" data-name="женский  сезон"><rect class="cls-2" x="23.3" y="992.24" width="63.6" height="42.25"/><text class="cls-8" transform="translate(29.93 1013.14)">ЖЕНСКИЙ <tspan x="9.34" y="11">СЕЗОН</tspan></text></g><g id="Сибирские_блины" data-name="Сибирские блины"><rect class="cls-2" x="23.3" y="1057.41" width="63.6" height="30.08"/><text class="cls-7" transform="translate(33.29 1071.41)">СИБИРСКИЕ <tspan x="8.4" y="8">БЛИНЫ</tspan></text></g><g id="скорпион"><rect class="cls-2" x="97.97" y="1057.41" width="57.45" height="30.08"/><text class="cls-7" transform="translate(106.12 1075.44)">СКОРПИОН</text></g><text class="cls-7" transform="translate(138.96 1111.47)">МОНГОЛЬСКАЯ <tspan x="13.09" y="8">ШЕРСТЬ</tspan></text><g id="ГОЛДы"><rect class="cls-2" x="63.76" y="1137.81" width="25.84" height="25.38"/><text class="cls-5" transform="translate(65.41 1152.74)">ГОЛДЫ</text></g><g id="Постелька"><rect class="cls-2" x="100.67" y="1137.81" width="103.59" height="54.58"/><text class="cls-10" transform="translate(115.08 1168.4)">ПОСТЕЛЬКА</text></g><g id="Читай-город"><rect class="cls-2" x="23.3" y="1218.51" width="202.64" height="85.67"/><text class="cls-4" transform="translate(45.4 1268.79)">ЧИТАЙ-ГОРОД</text></g><g id="spar"><polygon class="cls-2" points="878.15 1304.2 878.15 1221.41 878.18 1221.41 878.18 921.57 878.12 918.57 878.12 885.07 605.04 885.07 605.04 920.07 784.56 920.07 784.55 1304.2 878.15 1304.2"/><text class="cls-4" transform="translate(804.23 1101.76)">S<tspan class="cls-11" x="12.3" y="0">P</tspan><tspan x="24.62" y="0">AR</tspan></text></g><g id="TomShoos"><rect class="cls-2" x="166.5" y="1057.41" width="37.76" height="30.08"/><text class="cls-6" transform="translate(170.42 1073.89)">TOMSHOOS</text></g><g id="blackstar"><rect class="cls-2" x="130.65" y="992.12" width="41.35" height="42.37"/><text class="cls-5" transform="translate(133.98 1015.57)">BL<tspan class="cls-12" x="7.34" y="0">A</tspan><tspan x="11.38" y="0">CKS</tspan><tspan class="cls-13" x="23.19" y="0">T</tspan><tspan x="26.38" y="0">AR</tspan></text></g><g id="Баба_Рома" data-name="Баба Рома"><rect class="cls-2" x="237.02" y="1012.08" width="73.65" height="32.5"/><text class="cls-14" transform="translate(242.41 1032.06)">БАБА РОМА</text></g><g id="монро"><rect class="cls-2" x="404.82" y="931.07" width="108.11" height="50.17"/><text class="cls-15" transform="translate(425.18 964.66)">МОНРО</text></g><g id="МАЛИНА"><rect class="cls-2" x="404.82" y="992.24" width="108.11" height="95.25"/><text class="cls-15" transform="translate(418.4 1040.25)">МАЛИНА</text></g><g id="ШАПО"><rect class="cls-2" x="237.02" y="1055.91" width="73.65" height="31.58"/><text class="cls-14" transform="translate(257.15 1076.59)">ШАПО</text></g><g id="Maxfild"><rect class="cls-2" x="97.97" y="992.12" width="21.6" height="42.37"/><text class="cls-5" transform="translate(111.39 1026.74) rotate(-90)">MAXFILD</text></g><g id="SUBWAY"><rect class="cls-2" x="183.07" y="992.12" width="21.19" height="42.37"/><text class="cls-7" transform="translate(196.61 1027.56) rotate(-90)">SUB<tspan class="cls-16" x="13.4" y="0">WA</tspan><tspan x="24.29" y="0">Y</tspan></text></g></g></g></svg>