<svg xmlns="http://www.w3.org/2000/svg" viewBox="0 0 29.8 29.8"><defs><style>.cls-1{fill:#b0b0af;}</style></defs><title>Ресурс 1</title><g id="Слой_2" data-name="Слой 2"><g id="Слой_1-2" data-name="Слой 1"><path class="cls-1" d="M29.07,10.2l-.37-1c-.08-.19-.17-.42-.27-.61l-.16-.32c-.14-.3-.29-.59-.45-.86a16.73,16.73,0,0,0-1.08-1.61A16.79,16.79,0,0,0,25,3.93,15.84,15.84,0,0,0,21.5,1.51a2.24,2.24,0,0,1-.27-.13A16.77,16.77,0,0,0,19.65.75a1.06,1.06,0,0,0-.19-.06l-.13,0A18.16,18.16,0,0,0,17.09.14,16.94,16.94,0,0,0,14.4,0,14.84,14.84,0,0,0,8.52,1.41l-.25.12a17.79,17.79,0,0,0-2,1.18l-1,.79A19.06,19.06,0,0,0,3.89,4.83l-.82,1A17,17,0,0,0,2,7.39c-.11.19-.21.37-.32.58a15.47,15.47,0,0,0-.94,2.2l-.1.33A14.8,14.8,0,0,0,0,14.4a14,14,0,0,0,.44,4.17l.67,2a14.7,14.7,0,0,0,3.23,4.82l2,1.69a13.27,13.27,0,0,0,2.12,1.23l.12.06c.14.08.28.13.42.2l.19.07a14.73,14.73,0,0,0,3.52,1,16,16,0,0,0,1.7.15h1.07a15.65,15.65,0,0,0,3.1-.44,10.41,10.41,0,0,0,1-.3l.37-.12a7.55,7.55,0,0,0,1.13-.47l.42-.19a14.38,14.38,0,0,0,2-1.18l1-.79c.26-.21,1.17-1.07,1.35-1.28l.86-1,.23-.32.14-.19a12.53,12.53,0,0,0,1-1.68l.07-.12c0-.07.06-.11.08-.17l.22-.47A8.69,8.69,0,0,0,28.94,20a14.29,14.29,0,0,0,.86-5.55A14.41,14.41,0,0,0,29.07,10.2ZM27.48,20a6.09,6.09,0,0,1-.25.57l-.09.19a1.93,1.93,0,0,1-.19.38l-.58,1a3,3,0,0,1-.23.35l-.13.19c-.07.11-.15.21-.23.32L24.19,24.8a1.14,1.14,0,0,0-.16.14,1.28,1.28,0,0,1-.2.18l-.62.51a13.12,13.12,0,0,1-1.5,1,13.54,13.54,0,0,1-6.53,1.82,13.2,13.2,0,0,1-5.41-1c-.18-.07-.36-.14-.54-.23l-.35-.17a6,6,0,0,1-.73-.39,14.09,14.09,0,0,1-1.81-1.24l-.13-.11c-.38-.31-.69-.61-1-.91l-.1-.11L3.84,22.78a8.28,8.28,0,0,1-.67-1.06l-.29-.48A13.69,13.69,0,0,1,2.33,9.75,12.89,12.89,0,0,1,3.46,7.58,12.75,12.75,0,0,1,4.9,5.72L5,5.58l.08-.09,1.34-1.2c.21-.17.4-.32.65-.5l.15-.1.35-.24.31-.18a11.86,11.86,0,0,1,1.28-.69,13.26,13.26,0,0,1,5.38-1.25,13.21,13.21,0,0,1,6,1.24l1.06.54.35.21.19.12a14.39,14.39,0,0,1,2.53,2.07l.2.22c.28.33.54.61.75.89a15.6,15.6,0,0,1,1,1.47,13.48,13.48,0,0,1,1.82,6.53A13.24,13.24,0,0,1,27.48,20Z"/><path class="cls-1" d="M14.63,15.51l3,1.28,1.28.55,2.19.94a.86.86,0,0,0,.91,0,.71.71,0,0,0,.2-.6.63.63,0,0,0-.34-.49h0c-.18-.09-.36-.16-.54-.24l-5.76-2.49V5.15a3.38,3.38,0,0,0-.05-1,.65.65,0,0,0-.58-.41h0a.65.65,0,0,0-.59.35.82.82,0,0,0-.06.22V15A.61.61,0,0,0,14.63,15.51Z"/></g></g></svg>