<svg xmlns="http://www.w3.org/2000/svg" viewBox="0 0 14.98 14.99"><defs><style>.cls-1{fill:#b52f18;}</style></defs><title>Ресурс 3</title><g id="Слой_2" data-name="Слой 2"><g id="Слой_1-2" data-name="Слой 1"><path class="cls-1" d="M15,14.46V1.87a.56.56,0,0,0-.41-.54h0L10,0A.29.29,0,0,0,9.8,0L7.51.67,7.09.78l-1.45.41-.56.14a.8.8,0,0,1-.21-.05l-.23-.07L.38,0H.3A.28.28,0,0,0,.12.06.29.29,0,0,0,0,.3V13.18a.52.52,0,0,0,.38.5L4.92,15a.53.53,0,0,0,.35,0l4.07-1.14.3-.09c.21-.07.27-.05.56,0l4.16,1.17a.45.45,0,0,0,.43-.08A.48.48,0,0,0,15,14.46ZM4.77,14.19.69,13V.85l1.65.45C3,1.5,4,1.78,4.59,2L4.77,2ZM9.6,13l-.38.1-.53.16c-.85.25-2.23.65-3,.86l-.31.08V2L9.6.81Zm4.69,1.16L14,14.09c-.3-.07-1-.27-1.29-.36l-.54-.16c-.5-.15-1.27-.38-1.79-.52L10.17,13V.81l.33.1.34.1,3.45,1Z"/></g></g></svg>